PathFileType	4	(X/Y/Z)	Kaydara	
DataRate	CameraRate	NumFrames	NumMarkers	Units	OrigDataRate	OrigDataStartFrame	OrigNumFrames	
60.00	60.00	4	74	mm	60.00	691	195	
Frame#	Time	Y_rasi			Y_rpsi			Y_lpsi			Y_fneck			Y_bneck			Y_fhead			Y_rhead			Y_rshld			Y_relbtop			Y_relbext			Y_relblow			Y_rwrext			Y_rwrtop			Y_rwrlow			Y_lshld			Y_lelbext			Y_lelblow			Y_lelbtop			Y_lwrext			Y_lwrtop			Y_lwrlow			Y_rtopleg			Y_ltopleg			Y_rkneefr			Y_rkneebk			Y_rkneeis			Y_lkneefr			Y_lknssbk			Y_lkneeis			Y_rankfr			Y_rankis			Y_rankbk			Y_lankfr			Y_lankbk			Y_lankis			Y_lhead			Y_lasi			D_rpsi			D_lpsi			D_fneck			D_bneck			D_fhead			D_rhead			D_lhead			D_rshld			D_relbtop			D_relbext			D_relblow			D_rwrext			D_rwrtop			D_rwrlow			D_lshld			D_lelbext			D_lelblow			D_lelbtop			D_lwrext			D_lwrtop			D_lwrlow			D_rtopleg			D_ltopleg			D_rkneefr			D_rkneebk			D_rkneeis			D_lkneefr			D_lknssbk			D_lkneeis			D_rankfr			D_rankis			D_rankbk			D_lankfr			D_lankbk			D_lankis			D_lasi			D_rasi			
		X1	Y1	Z1	X2	Y2	Z2	X3	Y3	Z3	X4	Y4	Z4	X5	Y5	Z5	X6	Y6	Z6	X7	Y7	Z7	X8	Y8	Z8	X9	Y9	Z9	X10	Y10	Z10	X11	Y11	Z11	X12	Y12	Z12	X13	Y13	Z13	X14	Y14	Z14	X15	Y15	Z15	X16	Y16	Z16	X17	Y17	Z17	X18	Y18	Z18	X19	Y19	Z19	X20	Y20	Z20	X21	Y21	Z21	X22	Y22	Z22	X23	Y23	Z23	X24	Y24	Z24	X25	Y25	Z25	X26	Y26	Z26	X27	Y27	Z27	X28	Y28	Z28	X29	Y29	Z29	X30	Y30	Z30	X31	Y31	Z31	X32	Y32	Z32	X33	Y33	Z33	X34	Y34	Z34	X35	Y35	Z35	X36	Y36	Z36	X37	Y37	Z37	X38	Y38	Z38	X39	Y39	Z39	X40	Y40	Z40	X41	Y41	Z41	X42	Y42	Z42	X43	Y43	Z43	X44	Y44	Z44	X45	Y45	Z45	X46	Y46	Z46	X47	Y47	Z47	X48	Y48	Z48	X49	Y49	Z49	X50	Y50	Z50	X51	Y51	Z51	X52	Y52	Z52	X53	Y53	Z53	X54	Y54	Z54	X55	Y55	Z55	X56	Y56	Z56	X57	Y57	Z57	X58	Y58	Z58	X59	Y59	Z59	X60	Y60	Z60	X61	Y61	Z61	X62	Y62	Z62	X63	Y63	Z63	X64	Y64	Z64	X65	Y65	Z65	X66	Y66	Z66	X67	Y67	Z67	X68	Y68	Z68	X69	Y69	Z69	X70	Y70	Z70	X71	Y71	Z71	X72	Y72	Z72	X73	Y73	Z73	X74	Y74	Z74	

25	11.500	-549.15112	1087.93686	-106.97701	-606.42036	1064.38553	-281.68304	-369.65195	1057.52930	-294.34153	-485.88264	1435.28839	-176.97344	-434.09481	1478.25821	-282.47255	-516.47263	1638.25867	-118.24970	-524.27353	1571.86127	-284.29649	-658.59138	1414.16580	-242.36341	-698.78128	1097.18399	-230.45488	-729.10042	1109.62578	-280.11997	-667.19322	1089.18900	-307.58310	-725.81650	837.58392	-191.87721	-744.96376	854.58092	-157.46530	-711.95229	869.15245	-131.18320	-257.05179	1383.91907	-212.30024	-211.23549	1072.60803	-276.92976	-269.46104	1061.34598	-282.20177	-226.28168	1079.27811	-207.76533	-234.82721	820.52979	-200.52738	-211.86827	830.10201	-163.70022	-247.40780	845.20157	-141.51210	-657.01744	909.23286	-221.44941	-294.74152	910.21729	-191.39601	-644.58946	407.89665	-252.88830	-632.48253	458.80703	-327.13131	-548.88721	420.11211	-252.28922	-330.04410	479.46354	-123.03479	-280.59116	493.96259	-227.31871	-397.18086	468.27919	-193.31085	-632.96749	140.45997	-322.68703	-562.29546	135.28044	-336.90521	-605.53722	139.64577	-389.42657	-275.90673	132.94504	-172.69398	-261.32521	130.11619	-241.07862	-333.55274	125.52844	-207.60962	-384.31778	1569.70840	-220.91789	-388.06473	1079.01917	-118.35315	-932.06856	1180.16670	591.21353	-1073.64700	1190.89935	484.85737	-906.69632	1611.54297	442.00863	-997.81769	1661.45691	514.46167	-865.72639	1797.59796	318.88300	-912.15271	1807.98950	491.16600	-1025.47829	1793.29758	389.75983	-806.75400	1572.83325	572.46254	-785.68130	1203.68484	556.31897	-728.31673	1214.06158	589.08497	-785.97336	1197.98195	641.03928	-706.97548	934.09615	494.76795	-693.01254	952.02744	458.82141	-732.72751	964.11240	434.24026	-1144.21455	1561.44104	391.78913	-1169.84703	1189.02405	341.74183	-1135.76111	1169.22829	409.24091	-1106.99112	1194.94545	333.05798	-1119.22844	941.96800	298.79524	-1099.88937	959.62837	261.90115	-1057.59567	960.75981	282.32780	-821.99860	1039.96597	585.69149	-1102.99477	1033.10822	372.74761	-822.17758	556.74740	481.49891	-832.06856	561.33480	594.15199	-933.14026	548.09219	519.82529	-1006.67709	469.90326	372.41688	-1095.68764	518.09105	424.38660	-1007.35794	501.81679	484.92527	-832.82654	193.79259	551.95000	-908.70728	187.70109	536.00304	-883.33603	185.79893	617.98759	-1056.12831	162.57568	411.76208	-1075.14458	155.33601	488.37513	-992.70447	165.07250	445.43884	-988.64876	1190.90408	344.81197	-818.41255	1181.64566	458.41335 
26	11.517	-548.94417	1087.91626	-107.76579	-604.44725	1064.67514	-281.54232	-368.45364	1057.58179	-294.24570	-485.16701	1435.33173	-177.64265	-433.02017	1478.28400	-282.81393	-516.79482	1638.59406	-119.44621	-523.15086	1571.85211	-285.40695	-657.75146	1414.05609	-243.79253	-697.95616	1096.53954	-232.92299	-728.15430	1109.61960	-282.57710	-665.89653	1089.43527	-309.67144	-725.68710	835.55077	-200.38998	-745.43991	851.45462	-165.73368	-712.96585	865.63354	-138.55570	-256.72256	1384.13452	-211.26110	-209.77573	1072.37366	-274.11371	-267.81057	1061.00113	-279.75393	-225.45023	1080.00839	-205.06773	-234.82944	822.15157	-191.62960	-212.25931	832.52899	-154.82717	-247.89673	848.32993	-133.73652	-656.29631	909.43405	-223.14970	-294.17795	910.20226	-191.16552	-644.05586	408.16406	-253.93471	-632.00867	458.70525	-328.25573	-548.56987	420.21481	-253.23992	-329.92344	479.30344	-123.27555	-280.05306	493.97743	-227.48947	-396.91231	468.33183	-193.79002	-632.78645	140.39647	-322.81784	-562.13745	135.14781	-337.12193	-605.41065	139.46642	-389.62349	-275.77271	132.87704	-172.78025	-261.22665	130.05483	-241.03848	-333.42686	125.54022	-207.66760	-383.76045	1569.79080	-221.38798	-387.86812	1079.01405	-118.37193	-932.76253	1180.17960	591.02478	-1076.92886	1193.38135	486.65890	-908.19489	1611.55670	441.73904	-999.21158	1661.45477	514.23615	-866.75919	1797.60895	318.85498	-913.79021	1808.03986	490.95055	-1026.80763	1793.35571	389.46339	-807.89017	1572.88071	571.86073	-786.79153	1203.70667	556.02020	-729.37119	1214.11728	588.67199	-786.84158	1198.24051	640.67795	-708.18062	934.07669	494.98684	-694.46648	951.91643	458.66459	-734.36066	963.89374	434.36069	-1145.72304	1561.13342	391.94347	-1171.17531	1188.64426	342.50523	-1136.88370	1168.98941	409.77394	-1108.40515	1194.55368	333.77308	-1120.69717	941.48308	299.77650	-1101.53542	959.17641	262.86367	-1059.14162	960.24330	283.06952	-822.95341	1040.11063	585.10071	-1104.09073	1033.11874	372.91931	-822.69012	556.82720	481.43520	-832.47101	561.45367	594.21272	-933.57750	548.08777	519.96864	-1007.30919	470.03281	372.74113	-1096.40549	518.11329	424.66305	-1007.96326	501.87160	485.29617	-832.98996	193.83947	551.94263	-908.83545	187.62726	536.07391	-883.42346	185.80482	618.03883	-1056.34354	162.54021	411.88297	-1075.32425	155.24628	488.48785	-992.92236	165.10693	445.50591	-989.85085	1190.82413	345.08701	-819.63326	1181.89293	458.07884 
27	11.533	-548.73772	1087.95906	-108.63289	-604.04377	1064.70016	-283.76989	-367.26524	1057.68799	-294.22468	-484.44649	1435.24887	-178.27866	-431.94496	1478.36319	-283.09565	-517.20875	1639.00467	-120.56026	-522.20585	1571.78299	-286.59056	-656.86943	1413.89481	-245.26543	-697.28767	1096.15585	-235.51456	-727.08893	1109.58351	-285.16142	-664.49448	1089.68452	-311.77145	-725.47173	833.52890	-208.88594	-745.71175	848.55286	-174.30794	-713.08258	861.94389	-146.33341	-255.85699	1384.49524	-210.59916	-208.15094	1072.30141	-271.36230	-266.09375	1060.77942	-277.41583	-224.48017	1080.86014	-202.41039	-234.55614	823.93837	-183.47433	-212.42657	835.24216	-146.50549	-248.48362	851.80397	-125.47269	-655.52399	909.69040	-224.68321	-293.44627	910.22552	-190.82102	-643.75687	408.35693	-254.78859	-631.58810	458.56853	-329.33762	-547.92416	420.30640	-254.40548	-329.73526	479.25381	-123.61274	-279.62927	493.99548	-227.71605	-396.61125	468.38684	-194.33842	-632.59983	140.35635	-322.96635	-562.74876	134.66041	-336.82259	-605.26768	139.24898	-389.81689	-275.70148	132.92253	-172.83165	-261.12562	129.96172	-241.10004	-333.26210	125.56060	-207.77952	-383.06274	1569.87762	-221.33112	-387.55573	1078.95546	-118.32642	-933.45062	1180.14694	590.99400	-1076.35674	1191.38100	486.30386	-909.55147	1611.65665	441.46603	-1000.50980	1661.43860	513.95943	-867.90337	1797.45331	318.80960	-915.22179	1807.95898	490.87605	-1028.00522	1793.34961	388.82748	-808.97888	1572.92328	571.26968	-787.79526	1203.72322	555.86422	-730.45601	1214.15070	588.42369	-788.05634	1198.35091	640.61356	-709.05830	934.01260	495.18097	-695.44655	951.85417	458.84186	-735.60669	963.67340	434.86946	-1147.30682	1560.84869	392.14191	-1172.48161	1188.21121	343.10074	-1138.14651	1168.71040	410.44621	-1109.69566	1194.20731	334.05216	-1122.11479	940.99060	300.65519	-1102.98698	958.55827	263.66936	-1060.52048	959.81361	283.85946	-823.64365	1039.92355	585.16842	-1104.96109	1033.07259	373.04329	-823.20129	556.91811	481.36726	-832.80426	561.48628	594.11469	-934.07089	548.05874	519.90299	-1007.95235	470.03838	372.92305	-1097.13112	518.08472	424.92493	-1008.53096	501.93787	485.52185	-833.14011	193.85654	551.91380	-908.96660	187.61566	536.07597	-883.49380	185.80082	617.98550	-1056.55891	162.48596	412.00016	-1075.54138	155.13053	488.61336	-993.12546	165.16455	445.58651	-991.11832	1190.80597	345.08789	-820.62370	1181.92734	457.76611 
28	11.550	-548.35850	1087.94464	-109.54571	-602.61581	1064.95789	-284.59908	-366.02661	1057.80182	-294.15764	-483.93864	1435.32898	-178.67754	-430.87364	1478.44299	-283.30635	-517.52056	1639.33502	-121.45926	-521.30180	1571.71463	-287.72621	-656.06949	1413.78876	-246.80054	-696.75598	1095.73112	-238.17850	-726.03615	1109.54041	-288.10539	-662.96913	1089.97643	-314.00896	-725.03540	831.75247	-217.56775	-745.74753	845.92636	-182.87592	-713.93021	858.64838	-154.12391	-255.19390	1384.82178	-209.74592	-206.60566	1072.23930	-268.52180	-264.47065	1060.67879	-275.00349	-223.49918	1081.81038	-199.80471	-235.18814	825.66452	-174.86717	-213.14919	837.84035	-138.34453	-249.15483	855.17220	-118.09723	-654.26926	910.02083	-225.23268	-292.91769	909.65668	-190.20218	-643.44185	408.48194	-255.81799	-631.21429	458.39615	-330.38403	-547.63229	420.32898	-255.39345	-329.59053	479.20155	-123.95397	-279.17063	493.98590	-228.02797	-396.11080	468.36056	-195.09760	-632.44190	140.31167	-323.09814	-562.52728	134.55509	-337.03979	-605.15812	139.01867	-390.03448	-275.85131	132.96839	-172.75366	-260.98053	129.89429	-241.21124	-333.16628	125.56790	-207.84800	-383.00488	1570.23849	-220.97872	-387.25040	1079.00612	-118.15722	-933.88908	1180.00900	590.72739	-1077.96936	1191.67892	486.38725	-910.90431	1611.58600	441.10115	-1001.92970	1661.38260	513.85159	-868.78990	1797.34222	318.81357	-916.78070	1807.94907	490.67760	-1029.17793	1793.27713	388.34675	-810.06447	1572.89612	570.62160	-788.60474	1203.68042	555.83447	-731.61491	1214.19563	588.79944	-789.22905	1198.34137	640.62546	-709.37035	934.00108	495.72018	-696.12144	951.76231	459.37916	-736.39336	963.43826	435.50419	-1148.76595	1560.48492	392.30129	-1173.65364	1187.76436	343.65555	-1138.88023	1168.37791	410.80173	-1110.90446	1193.79837	334.47269	-1123.35899	940.55107	301.42179	-1104.24843	958.13072	264.39964	-1061.76552	959.26018	284.55368	-824.41628	1039.92561	584.99619	-1106.19247	1033.16948	373.22727	-823.51753	557.05120	481.06567	-833.15842	561.59794	593.99269	-934.47433	547.97462	519.73495	-1008.50723	470.06882	372.95330	-1097.74391	517.95670	425.07820	-1009.16679	501.91032	485.70663	-833.28262	193.83158	551.90845	-909.07516	187.56178	536.02287	-883.61389	185.79517	617.89288	-1056.74889	162.40620	412.04441	-1075.62340	154.94860	488.59497	-993.28133	165.11839	445.67856	-992.28661	1190.69099	345.35713	-821.77025	1181.88950	457.62306 
